HIERARCHY
ROOT hip
{
	OFFSET 0.000000 0.000000 0.000000
	CHANNELS 6 Xposition Yposition Zposition Xrotation Zrotation Yrotation 
	JOINT abdomen
	{
		OFFSET 0.000000 3.422050 0.000000
		CHANNELS 3 Xrotation Zrotation Yrotation 
		JOINT chest
		{
			OFFSET 0.000000 8.486693 -0.684411
			CHANNELS 3 Xrotation Zrotation Yrotation 
			JOINT neck
			{
				OFFSET 0.000000 10.266162 -0.273764
				CHANNELS 3 Xrotation Zrotation Yrotation 
				JOINT head
				{
					OFFSET 0.000000 3.148285 0.000000
					CHANNELS 3 Xrotation Zrotation Yrotation 
					End Site
					{
						OFFSET 0.000000 3.148289 0.000000
					}
				}
			}
			JOINT lCollar
			{
				OFFSET 3.422053 6.707223 -0.821293
				CHANNELS 3 Yrotation Zrotation Xrotation 
				JOINT lShldr
				{
					OFFSET 3.285171 0.000000 0.000000
					CHANNELS 3 Zrotation Yrotation Xrotation 
					JOINT lForeArm
					{
						OFFSET 10.129278 0.000000 0.000000
						CHANNELS 3 Yrotation Zrotation Xrotation 
						JOINT lHand
						{
							OFFSET 8.486692 0.000000 0.000000
							CHANNELS 3 Zrotation Yrotation Xrotation 
							End Site
							{
								OFFSET 4.106464 0.000000 0.000000
							}
						}
					}
				}
			}
			JOINT rCollar
			{
				OFFSET -3.558935 6.707223 -0.821293
				CHANNELS 3 Yrotation Zrotation Xrotation 
				JOINT rShldr
				{
					OFFSET -3.148289 0.000000 0.000000
					CHANNELS 3 Zrotation Yrotation Xrotation 
					JOINT rForeArm
					{
						OFFSET -10.266159 0.000000 0.000000
						CHANNELS 3 Yrotation Zrotation Xrotation 
						JOINT rHand
						{
							OFFSET -8.349810 0.000000 0.000000
							CHANNELS 3 Zrotation Yrotation Xrotation 
							End Site
							{
								OFFSET -4.106464 0.000000 0.000000
							}
						}
					}
				}
			}
		}
	}
	JOINT lThigh
	{
		OFFSET 5.338403 -1.642589 1.368821
		CHANNELS 3 Xrotation Zrotation Yrotation 
		JOINT lShin
		{
			OFFSET -2.053232 -20.121670 0.000000
			CHANNELS 3 Xrotation Zrotation Yrotation 
			JOINT lFoot
			{
				OFFSET 0.000000 -19.300380 -1.231939
				CHANNELS 3 Xrotation Yrotation Zrotation 
				End Site
				{
					OFFSET 0.000000 -2.463878 4.653993
				}
			}
		}
	}
	JOINT rThigh
	{
		OFFSET -5.338403 -1.642589 1.368821
		CHANNELS 3 Xrotation Zrotation Yrotation 
		JOINT rShin
		{
			OFFSET 2.053232 -20.121670 0.000000
			CHANNELS 3 Xrotation Zrotation Yrotation 
			JOINT rFoot
			{
				OFFSET 0.000000 -19.300380 -1.231939
				CHANNELS 3 Xrotation Yrotation Zrotation 
				End Site
				{
					OFFSET 0.000000 -2.463878 4.653993
				}
			}
		}
	}
}
MOTION
Frames: 16
Frame Time: 0.049989
0.000000 43.528500 0.000000 0.000000 0.000000 0.000000 0.000000 0.000000 0.000000 0.000000 0.000000 0.000000 0.000000 0.000000 0.000000 0.000000 0.000000 0.000000 0.000000 0.000000 0.000000 0.000000 0.000000 0.000000 0.000000 0.000000 0.000000 0.000000 0.000000 0.000000 0.000000 0.000000 0.000000 0.000000 0.000000 0.000000 0.000000 0.000000 0.000000 0.000000 0.000000 0.000000 0.000000 0.000000 0.000000 0.000000 0.000000 0.000000 0.000000 0.000000 0.000000 0.000000 0.000000 0.000000 0.000000 0.000000 0.000000 0.000000 0.000000 0.000000 
-0.309380 18.540403 -13.922323 -31.002100 -0.005055 -179.998596 3.209952 -0.478536 -0.214568 20.664116 0.518035 0.931600 0.701178 0.000000 0.000000 0.134640 0.337468 0.000397 -28.065422 -10.158218 -4.464580 -51.999149 -21.947882 -2.523976 -45.059181 2.354900 -0.369240 -7.000325 0.000000 0.000000 28.061483 10.154963 -4.463367 51.994499 21.944584 -2.526416 45.055439 -2.358122 -0.367983 6.996825 0.000000 0.000000 -72.572807 46.374439 18.663965 128.385895 44.167622 -9.428102 57.840790 -6.493972 -25.538870 -72.573372 -46.379990 -18.664938 128.385544 -44.165661 9.423114 57.841621 6.489252 25.537365 
-0.309380 18.467388 -14.078980 -31.380417 -0.005050 -179.998581 2.211571 -0.478645 -0.214487 18.904049 0.517985 0.931633 1.398156 0.000000 0.000000 0.269689 0.677122 -0.016669 -28.476557 -12.046574 -3.229189 -51.084526 -21.792040 -2.938840 -44.029232 2.605128 -0.396572 -7.710521 -0.399088 -0.020978 28.320156 11.984740 -3.177627 51.010494 21.762251 -2.972545 43.979977 -2.615780 -0.398332 7.821674 0.547130 -0.093566 -72.231140 46.543369 18.893009 128.385895 44.167622 -9.428102 57.334049 -6.507186 -25.520060 -72.230423 -46.548046 -18.894999 128.385544 -44.165661 9.423114 57.333710 6.503823 25.518696 
-0.309380 18.394375 -14.235638 -31.765175 -0.005045 -179.998566 1.212353 -0.478752 -0.214405 17.139362 0.517937 0.931667 2.096210 0.000000 0.000000 0.404705 1.016959 -0.032942 -28.850435 -13.952029 -1.992599 -50.171574 -21.629982 -3.350773 -42.997959 2.855060 -0.428442 -8.421020 -0.798629 -0.037016 28.539265 13.827899 -1.885235 50.028606 21.572712 -3.414988 42.903038 -2.873087 -0.433563 8.646429 1.096006 -0.179325 -71.887360 46.711334 19.124235 128.385895 44.167625 -9.428103 56.827179 -6.520567 -25.501360 -71.885414 -46.715172 -19.127251 128.385559 -44.165661 9.423113 56.825672 6.518561 25.500153 
-0.309380 18.321360 -14.392295 -32.149967 -0.005041 -179.998550 0.212450 -0.478858 -0.214320 15.370878 0.517889 0.931702 2.795292 0.000000 0.000000 0.539695 1.356969 -0.048421 -29.186031 -15.872241 -0.753212 -49.260475 -21.461763 -3.759624 -41.965542 3.104571 -0.464848 -9.131813 -1.198519 -0.048103 28.717583 15.682149 -0.584434 49.049011 21.376036 -3.853556 41.824776 -3.129902 -0.473675 9.471109 1.646433 -0.257241 -71.541527 46.878357 19.357668 128.385880 44.167614 -9.428100 56.320232 -6.534119 -25.482788 -71.538315 -46.881340 -19.361719 128.385544 -44.165649 9.423113 56.317539 6.533465 25.481739 
-0.309380 18.248346 -14.548951 -32.534809 -0.005036 -179.998535 -0.787987 -0.478963 -0.214234 13.599431 0.517842 0.931739 3.495351 0.000000 0.000000 0.674666 1.697143 -0.063107 -29.482182 -17.804783 0.490712 -48.351376 -21.287457 -4.165237 -40.932083 3.353536 -0.505786 -9.842906 -1.598659 -0.054230 28.853779 17.545128 0.726669 48.071960 21.172331 -4.288059 40.745358 -3.386086 -0.518662 10.295747 2.198218 -0.327282 -71.193581 47.044422 19.593319 128.385880 44.167618 -9.428102 55.813198 -6.547832 -25.464327 -71.189140 -47.046539 -19.598391 128.385544 -44.165657 9.423115 55.809322 6.548533 25.463455 
-0.309380 18.175331 -14.705608 -32.919666 -0.005031 -179.998520 -1.788806 -0.479066 -0.214145 11.825857 0.517797 0.931778 4.196337 0.000000 0.000000 0.809624 2.037473 -0.076999 -29.737606 -19.747175 1.741052 -47.444466 -21.107134 -4.567462 -39.897728 3.601830 -0.551248 -10.554294 -1.998946 -0.055389 28.946383 19.414408 2.050108 47.097610 20.961685 -4.718318 39.664940 -3.641497 -0.568514 11.120361 2.751162 -0.389416 -70.843567 47.209507 19.831188 128.385895 44.167622 -9.428102 55.306091 -6.561708 -25.445984 -70.837883 -47.210747 -19.837275 128.385544 -44.165661 9.423114 55.301056 6.563763 25.445305 
-0.309380 18.102318 -14.862266 -33.304550 -0.005026 -179.998505 -2.789854 -0.479167 -0.214055 10.051009 0.517753 0.931818 4.898199 0.000000 0.000000 0.944576 2.377950 -0.090096 -29.950920 -21.696903 2.999842 -46.539883 -20.920872 -4.966154 -38.862617 3.849326 -0.601222 -11.265969 -2.399277 -0.051573 28.993784 21.287500 3.388066 46.126163 20.744209 -5.144156 38.583675 -3.895995 -0.623214 11.944979 3.305067 -0.443616 -70.491425 47.373600 20.071287 128.385910 44.167625 -9.428103 54.798958 -6.575747 -25.427769 -70.484497 -47.373955 -20.078384 128.385559 -44.165665 9.423113 54.792725 6.579151 25.427284 
-0.309380 18.029303 -15.018923 -33.689430 -0.005021 -179.998474 -3.790978 -0.479267 -0.213963 8.275734 0.517709 0.931859 5.600887 0.000000 0.000000 1.079529 2.718565 -0.102398 -30.120541 -23.651386 4.269292 -45.637787 -20.728754 -5.361176 -37.826893 4.095903 -0.655690 -11.977938 -2.799551 -0.042776 28.994255 23.161894 4.742891 45.157829 20.520018 -5.565411 37.501743 -4.149442 -0.682743 12.769641 3.859737 -0.489857 -70.137154 47.536674 20.313633 128.385910 44.167625 -9.428105 54.291794 -6.589944 -25.409678 -70.128983 -47.536144 -20.321743 128.385559 -44.165665 9.423113 54.284393 6.594701 25.409410 
-0.309380 17.956289 -15.175580 -34.074326 -0.005016 -179.998459 -4.792027 -0.479366 -0.213869 6.500885 0.517668 0.931901 6.304348 0.000000 0.000000 1.214489 3.059310 -0.113903 -30.244755 -25.608042 5.551798 -44.738342 -20.530872 -5.752392 -36.790695 4.341436 -0.714630 -12.690188 -3.199663 -0.028997 28.945850 25.034998 6.117105 44.192760 20.289219 -5.981915 36.419273 -4.401699 -0.747074 13.594364 4.414970 -0.528116 -69.780785 47.698750 20.558222 128.385895 44.167618 -9.428102 53.784641 -6.604300 -25.391710 -69.771393 -47.697319 -20.567337 128.385544 -44.165661 9.423114 53.776054 6.610404 25.391672 
-0.309380 17.883274 -15.332237 -34.459198 -0.005011 -179.998444 -5.792847 -0.479462 -0.213774 4.727314 0.517627 0.931945 7.008531 0.000000 0.000000 1.349464 3.400177 -0.124610 -30.321611 -27.564220 6.849962 -43.841671 -20.327303 -6.139668 -35.754158 4.585802 -0.778018 -13.402721 -3.599512 -0.010233 28.846464 26.904203 7.513423 43.231155 20.051941 -6.393515 35.336456 -4.652627 -0.816178 14.419186 4.970570 -0.558373 -69.422302 47.859787 20.805061 128.385895 44.167622 -9.428102 53.277500 -6.618814 -25.373875 -69.411652 -47.857437 -20.815172 128.385559 -44.165657 9.423113 53.267746 6.626266 25.374075 
-0.309380 17.810261 -15.488894 -34.844070 -0.005005 -179.998444 -6.793283 -0.479557 -0.213677 2.955866 0.517588 0.931990 7.713384 0.000000 0.000000 1.484459 3.741154 -0.134519 -30.348972 -29.517288 8.166613 -42.947948 -20.118153 -6.522883 -34.717438 4.828881 -0.845824 -14.115538 -3.998997 0.013516 28.693796 28.766861 8.934771 42.273159 19.808304 -6.800064 34.253441 -4.902092 -0.890018 15.244137 5.526336 -0.580612 -69.061661 48.019764 21.054157 128.385895 44.167622 -9.428102 52.770401 -6.633481 -25.356171 -69.049789 -48.016510 -21.065279 128.385544 -44.165661 9.423114 52.759457 6.642278 25.356623 
-0.309380 17.737246 -15.645551 -35.228912 -0.005000 -179.998413 -7.793186 -0.479650 -0.213578 1.187382 0.517551 0.932036 8.418856 0.000000 0.000000 1.619482 4.082234 -0.143629 -30.324421 -31.464567 9.504828 -42.057281 -19.903515 -6.901915 -33.680679 5.070552 -0.918015 -14.828636 -4.398015 0.042250 28.485327 30.620285 10.384276 41.318947 19.558441 -7.201422 33.170410 -5.149960 -0.968554 16.069242 6.082068 -0.594819 -68.698853 48.178680 21.305536 128.385895 44.167622 -9.428102 52.263367 -6.648301 -25.338598 -68.685791 -48.174511 -21.317635 128.385544 -44.165661 9.423114 52.251240 6.658441 25.339314 
-0.309380 17.664232 -15.802208 -35.613716 -0.004994 -179.998398 -8.792404 -0.479742 -0.213478 -0.577304 0.517515 0.932084 9.124889 0.000000 0.000000 1.754540 4.423409 -0.151939 -30.245287 -33.403389 10.867978 -41.169827 -19.683491 -7.276646 -32.644012 5.310696 -0.994553 -15.541997 -4.796460 0.075963 28.218269 32.461773 11.865334 40.368664 19.302485 -7.597451 32.087513 -5.396097 -1.051742 16.894545 6.637568 -0.600981 -68.333916 48.336517 21.559177 128.385895 44.167625 -9.428104 51.756413 -6.663274 -25.321167 -68.319626 -48.331413 -21.572268 128.385544 -44.165661 9.423114 51.743099 6.674755 25.322157 
-0.309381 17.591217 -15.958865 -35.999821 -0.004989 -179.998383 -9.790785 -0.479831 -0.213377 -2.337372 0.517480 0.932132 9.831435 0.000000 0.000000 1.889639 4.764669 -0.159447 -30.108570 -35.331047 12.259733 -40.285698 -19.458189 -7.646974 -31.607592 5.549198 -1.075394 -16.255636 -5.194238 0.114653 27.889593 34.288570 13.381577 39.422466 19.040575 -7.988032 31.004923 -5.640375 -1.139531 17.720068 7.192636 -0.599091 -67.966835 48.493271 21.815102 128.385895 44.167622 -9.428102 51.249546 -6.678394 -25.303864 -67.951317 -48.487217 -21.829165 128.385544 -44.165661 9.423114 51.235058 6.691214 25.305143 
-0.309380 17.654495 -15.823095 -35.665020 -0.004994 -179.998398 -8.925571 -0.479754 -0.213465 -0.812264 0.517510 0.932090 10.538440 0.000000 0.000000 2.024786 5.106004 -0.166152 -30.230459 -33.661114 11.051810 -41.051746 -19.653757 -7.326284 -32.505806 5.342595 -1.005084 -15.637135 -4.849540 0.080835 28.178068 32.706253 12.065383 40.242268 19.267906 -7.649847 31.943150 -5.428778 -1.063182 17.004601 6.711606 -0.601195 -68.285110 48.357487 21.593164 128.385895 44.167622 -9.428102 51.688831 -6.665282 -25.318853 -68.270653 -48.352257 -21.606386 128.385544 -44.165661 9.423115 51.675354 6.676941 25.319878 
